# xmcd
#
# Track frame offsets:
#	150
#	2993
#	17659
#	33142
#	59261
#	76884
#	99942
#	115285
#	137421
#	157356
#	174036
#
# Disc length: 2616 seconds
#
# Revision: 1
# Processed by: cddbd v1.5.2PL0 Copyright (c) Steve Scherf et al.
# Submitted via: audiograbber 1.83.01
#
DISCID=7a0a360b
DTITLE=Timor - Aeons Of Despite
DYEAR=2008
DGENRE=Death Metal
TTITLE0=Intro
TTITLE1=Morbid Crusade
TTITLE2=What Lies Beneath
TTITLE3=Aeons Of Despite
TTITLE4=Downfall Of Humanity
TTITLE5=Warhead
TTITLE6=Ruled By Betrayal
TTITLE7=Denial Of Existence
TTITLE8=Prophet - Messiah - Deceiver
TTITLE9=Nemesis
TTITLE10=Breed Of A New Age
EXTD=
EXTT0=
EXTT1=
EXTT2=
EXTT3=
EXTT4=
EXTT5=
EXTT6=
EXTT7=
EXTT8=
EXTT9=
EXTT10=
PLAYORDER=
